<svg width="424" height="424" xmlns="http://www.w3.org/2000/svg" version="1.1">
 <g>
  <title>Layer 1</title>
  <path id="svg_22" fill="#fff" fill-rule="evenodd" d="m206.33616,63.15338l-77.781,195.05c-0.39844,1 -1.0898,1.8789 -1.9688,2.5c-0.87891,0.62109 -1.9375,0.98047 -3.0117,1.0234c-1.0742,0.05469 -2.1602,-0.23438 -3.082,-0.78125c-0.92578,-0.54688 -1.6836,-1.3711 -2.1602,-2.3359l-37.039,-75.113l-81.18,177.35l75.402,-93.254c0.60156,-0.74219 1.3945,-1.3281 2.2812,-1.6797c0.88672,-0.35156 1.8633,-0.47656 2.8125,-0.34766c0.94531,0.125 1.8594,0.5 2.6211,1.0703c0.76562,0.57422 1.3789,1.3438 1.7617,2.2188l37.438,84.758l85.961,-209.79c0.38672,-0.9375 1.0312,-1.7695 1.8477,-2.375c0.81641,-0.60547 1.7969,-0.98047 2.8086,-1.0781s2.0469,0.08984 2.9609,0.53125c0.91406,0.44141 1.7031,1.1367 2.2578,1.9844l90.812,139.39l52.719,-86.453c0.43359,-0.71094 1.0273,-1.3203 1.7227,-1.7773c0.69531,-0.45312 1.4961,-0.75 2.3242,-0.85938c0.82422,-0.10938 1.6758,-0.03516 2.4648,0.22656c0.79297,0.25781 1.5234,0.69531 2.1289,1.2656l53.449,50.801l-58.781,-104.79l-49.289,77.652c-0.5,0.78906 -1.2031,1.4492 -2.0234,1.8984c-0.81641,0.45312 -1.75,0.69141 -2.6875,0.69531c-0.93359,0.00391 -1.8711,-0.23438 -2.6914,-0.67969c-0.82031,-0.44922 -1.5273,-1.1016 -2.0352,-1.8867l-100.0429,-155.21434z"/>
 </g>
</svg>